name ./resultDataOpenSim/trcMotMarkerGrf/sub09/grf-04-07.mot
datacolumns 19
datarows 20
range 0.48800000 0.56400000
endheader

                time	     ground_force_vx	     ground_force_vy	     ground_force_vz	     ground_force_px	     ground_force_py	     ground_force_pz	   l_ground_force_vx	   l_ground_force_vy	   l_ground_force_vz	   l_ground_force_px	   l_ground_force_py	   l_ground_force_pz	     ground_torque_x	     ground_torque_y	     ground_torque_z	   l_ground_torque_x	   l_ground_torque_y	   l_ground_torque_z	
          0.48800000	         23.19638086	        376.31213904	         -5.50798588	         -0.73241890	          0.00000000	          0.05617837	          0.00000000	          0.00000000	          0.00000000	          0.00000000	          0.00000000	          0.00000000	          0.00000000	          1.84046815	          0.00000000	          0.00000000	          0.00000000	          0.00000000	
          0.49200000	         24.63412600	        380.60692323	         -5.12188079	         -0.73047206	          0.00000000	          0.05669398	          0.00000000	          0.00000000	          0.00000000	          0.00000000	          0.00000000	          0.00000000	          0.00000000	          1.97668157	          0.00000000	          0.00000000	          0.00000000	          0.00000000	
          0.49600000	         25.86807265	        385.36163511	         -4.60280421	         -0.72851242	          0.00000000	          0.05718154	          0.00000000	          0.00000000	          0.00000000	          0.00000000	          0.00000000	          0.00000000	          0.00000000	          2.14240024	          0.00000000	          0.00000000	          0.00000000	          0.00000000	
          0.50000000	         26.97517107	        390.54323603	         -4.25632201	         -0.72653299	          0.00000000	          0.05766387	          0.00000000	          0.00000000	          0.00000000	          0.00000000	          0.00000000	          0.00000000	          0.00000000	          2.30223797	          0.00000000	          0.00000000	          0.00000000	          0.00000000	
          0.50400000	         28.08784098	        396.14336908	         -4.34754809	         -0.72456198	          0.00000000	          0.05817198	          0.00000000	          0.00000000	          0.00000000	          0.00000000	          0.00000000	          0.00000000	          0.00000000	          2.42461822	          0.00000000	          0.00000000	          0.00000000	          0.00000000	
          0.50800000	         29.35600120	        402.18161590	         -5.04516388	         -0.72263579	          0.00000000	          0.05873605	          0.00000000	          0.00000000	          0.00000000	          0.00000000	          0.00000000	          0.00000000	          0.00000000	          2.48880093	          0.00000000	          0.00000000	          0.00000000	          0.00000000	
          0.51200000	         30.90850784	        408.69493525	         -6.39110692	         -0.72076753	          0.00000000	          0.05938309	          0.00000000	          0.00000000	          0.00000000	          0.00000000	          0.00000000	          0.00000000	          0.00000000	          2.48926064	          0.00000000	          0.00000000	          0.00000000	          0.00000000	
          0.51600000	         32.82203256	        415.72623097	         -8.30144165	         -0.71896653	          0.00000000	          0.06012866	          0.00000000	          0.00000000	          0.00000000	          0.00000000	          0.00000000	          0.00000000	          0.00000000	          2.43634273	          0.00000000	          0.00000000	          0.00000000	          0.00000000	
          0.52000000	         35.10605239	        423.32220560	        -10.59520883	         -0.71724027	          0.00000000	          0.06096625	          0.00000000	          0.00000000	          0.00000000	          0.00000000	          0.00000000	          0.00000000	          0.00000000	          2.35304812	          0.00000000	          0.00000000	          0.00000000	          0.00000000	
          0.52400000	         37.70976319	        431.52724184	        -13.04319402	         -0.71558036	          0.00000000	          0.06187184	          0.00000000	          0.00000000	          0.00000000	          0.00000000	          0.00000000	          0.00000000	          0.00000000	          2.26880089	          0.00000000	          0.00000000	          0.00000000	          0.00000000	
          0.52800000	         40.54644443	        440.36690723	        -15.42362182	         -0.71397806	          0.00000000	          0.06281662	          0.00000000	          0.00000000	          0.00000000	          0.00000000	          0.00000000	          0.00000000	          0.00000000	          2.21186122	          0.00000000	          0.00000000	          0.00000000	          0.00000000	
          0.53200000	         43.52617046	        449.83594893	        -17.57010179	         -0.71242626	          0.00000000	          0.06377221	          0.00000000	          0.00000000	          0.00000000	          0.00000000	          0.00000000	          0.00000000	          0.00000000	          2.20237796	          0.00000000	          0.00000000	          0.00000000	          0.00000000	
          0.53600000	         46.58730965	        459.91217402	        -19.40081723	         -0.71091853	          0.00000000	          0.06470986	          0.00000000	          0.00000000	          0.00000000	          0.00000000	          0.00000000	          0.00000000	          0.00000000	          2.24780633	          0.00000000	          0.00000000	          0.00000000	          0.00000000	
          0.54000000	         49.71808309	        470.59005289	        -20.92418093	         -0.70946243	          0.00000000	          0.06560247	          0.00000000	          0.00000000	          0.00000000	          0.00000000	          0.00000000	          0.00000000	          0.00000000	          2.34167840	          0.00000000	          0.00000000	          0.00000000	          0.00000000	
          0.54400000	         52.96211211	        481.90172522	        -22.22348176	         -0.70808271	          0.00000000	          0.06642768	          0.00000000	          0.00000000	          0.00000000	          0.00000000	          0.00000000	          0.00000000	          0.00000000	          2.46580876	          0.00000000	          0.00000000	          0.00000000	          0.00000000	
          0.54800000	         56.40517733	        493.90715199	        -23.42717381	         -0.70681543	          0.00000000	          0.06716985	          0.00000000	          0.00000000	          0.00000000	          0.00000000	          0.00000000	          0.00000000	          0.00000000	          2.59522645	          0.00000000	          0.00000000	          0.00000000	          0.00000000	
          0.55200000	         60.14784799	        506.66050356	        -24.67057273	         -0.70569585	          0.00000000	          0.06781625	          0.00000000	          0.00000000	          0.00000000	          0.00000000	          0.00000000	          0.00000000	          0.00000000	          2.70460254	          0.00000000	          0.00000000	          0.00000000	          0.00000000	
          0.55600000	         64.27464112	        520.17382698	        -26.05479610	         -0.70474223	          0.00000000	          0.06835864	          0.00000000	          0.00000000	          0.00000000	          0.00000000	          0.00000000	          0.00000000	          0.00000000	          2.77471883	          0.00000000	          0.00000000	          0.00000000	          0.00000000	
          0.56000000	         68.83121006	        534.39561257	        -27.61062602	         -0.70394979	          0.00000000	          0.06879575	          0.00000000	          0.00000000	          0.00000000	          0.00000000	          0.00000000	          0.00000000	          0.00000000	          2.79756482	          0.00000000	          0.00000000	          0.00000000	          0.00000000	
          0.56400000	         73.81441487	        549.20867976	        -29.27622415	         -0.70329667	          0.00000000	          0.06912696	          0.00000000	          0.00000000	          0.00000000	          0.00000000	          0.00000000	          0.00000000	          0.00000000	          2.77891694	          0.00000000	          0.00000000	          0.00000000	          0.00000000	
